<svg xmlns="http://www.w3.org/2000/svg" viewBox="0 0 900 1160" width="900" height="1160" role="img" aria-label="Organisasi">
  <defs>
    <linearGradient id="g" x1="0" y1="0" x2="1" y2="1">
      <stop offset="0" stop-color="#101014"/>
      <stop offset="1" stop-color="#0b0b0e"/>
    </linearGradient>
  </defs>
  <rect width="900" height="1160" fill="url(#g)"/>
  <rect x="34.5" y="34.5" width="831" height="1091" fill="none" stroke="#ece9e4" stroke-opacity="0.28"/>
  <rect x="48.5" y="48.5" width="803" height="1063" fill="none" stroke="#ece9e4" stroke-opacity="0.12"/>

  <text x="450" y="150" text-anchor="middle" font-family="ui-monospace, monospace" font-size="19" letter-spacing="7" fill="#ece9e4" fill-opacity="0.55">PENGHARGAAN</text>
  <line x1="390" y1="180" x2="510" y2="180" stroke="#ece9e4" stroke-opacity="0.4"/>

  <text x="450" y="252" text-anchor="middle" font-family="Georgia, serif" font-size="52" fill="#ece9e4" fill-opacity="0.92">Organisasi</text>

  <circle cx="450" cy="470" r="52" fill="none" stroke="#ece9e4" stroke-opacity="0.260"/>
  <circle cx="450" cy="470" r="76" fill="none" stroke="#ece9e4" stroke-opacity="0.234"/>
  <circle cx="450" cy="470" r="100" fill="none" stroke="#ece9e4" stroke-opacity="0.208"/>
  <circle cx="450" cy="470" r="124" fill="none" stroke="#ece9e4" stroke-opacity="0.182"/>
  <circle cx="450" cy="470" r="148" fill="none" stroke="#ece9e4" stroke-opacity="0.156"/>
  <circle cx="450" cy="470" r="172" fill="none" stroke="#ece9e4" stroke-opacity="0.130"/>
  <circle cx="450" cy="470" r="196" fill="none" stroke="#ece9e4" stroke-opacity="0.104"/>
  <circle cx="450" cy="470" r="220" fill="none" stroke="#ece9e4" stroke-opacity="0.078"/>
  <circle cx="450" cy="470" r="244" fill="none" stroke="#ece9e4" stroke-opacity="0.052"/>

  <circle cx="450" cy="830" r="54" fill="none" stroke="#ece9e4" stroke-opacity="0.5"/>
  <circle cx="450" cy="830" r="43" fill="none" stroke="#ece9e4" stroke-opacity="0.28"/>
  <text x="450" y="839" text-anchor="middle" font-family="Georgia, serif" font-size="27" fill="#ece9e4" fill-opacity="0.72">NVD</text>

  <text x="450" y="960" text-anchor="middle" font-family="Georgia, serif" font-size="34" fill="#ece9e4" fill-opacity="0.88">Natanael Vine Djapri</text>
  <line x1="260" y1="990" x2="640" y2="990" stroke="#ece9e4" stroke-opacity="0.32"/>
  <text x="450" y="1022" text-anchor="middle" font-family="ui-monospace, monospace" font-size="15" letter-spacing="4" fill="#ece9e4" fill-opacity="0.42">PEMEGANG SERTIFIKAT</text>

  <text x="450" y="1090" text-anchor="middle" font-family="ui-monospace, monospace" font-size="13" letter-spacing="3" fill="#ece9e4" fill-opacity="0.3">GANTI BERKAS INI DENGAN PINDAIAN ASLI</text>
</svg>
